<?xml version="1.0" standalone="no"?>
<!DOCTYPE svg PUBLIC "-//W3C//DTD SVG 20010904//EN"
 "http://www.w3.org/TR/2001/REC-SVG-20010904/DTD/svg10.dtd">
<svg version="1.0" xmlns="http://www.w3.org/2000/svg"
 viewBox="0 0 2600.000000 2600.000000"
 preserveAspectRatio="xMidYMid meet">
<metadata>
Created by potrace 1.15, written by Peter Selinger 2001-2017
</metadata>
<g transform="translate(0.000000,2600.000000) scale(0.100000,-0.100000)"
fill="#000000" stroke="none">
<path d="M9556 18584 c-208 -41 -385 -134 -541 -285 l-80 -77 -90 19 c-53 11
-132 19 -191 19 -491 1 -910 -320 -1041 -797 -24 -87 -27 -116 -28 -258 0 -88
3 -174 7 -191 7 -30 4 -33 -66 -78 -241 -152 -418 -415 -472 -702 -24 -129
-15 -347 18 -464 76 -262 225 -470 440 -613 l85 -57 -9 -57 c-15 -93 -4 -315
21 -410 94 -361 359 -644 708 -759 107 -34 258 -57 359 -53 46 2 84 3 84 1 0
-8 -323 -929 -331 -942 -6 -11 -8 -7 -9 15 0 22 -23 61 -82 140 -155 210 -266
317 -385 373 l-58 27 -340 3 c-439 4 -601 -5 -671 -41 -91 -46 -171 -161 -210
-302 -22 -78 -30 -369 -14 -505 30 -259 110 -410 258 -482 l67 -33 377 -3
c208 -2 378 -6 378 -11 0 -4 -9 -34 -20 -67 -35 -100 -58 -204 -75 -327 -12
-98 -15 -258 -15 -955 0 -758 2 -840 16 -861 38 -54 -150 -51 3004 -51 1606 0
2920 -4 2920 -8 0 -5 -11 -19 -25 -32 -43 -40 -132 -182 -169 -269 -57 -132
-77 -220 -83 -369 -11 -252 47 -453 189 -659 64 -93 204 -227 295 -283 53 -32
71 -49 67 -60 -14 -32 -16 -282 -4 -358 71 -445 409 -794 858 -887 98 -21 289
-20 401 0 l88 17 74 -73 c271 -267 671 -369 1037 -263 179 52 324 138 460 272
l84 82 51 -15 c130 -37 330 -48 459 -25 328 60 610 264 764 554 87 164 124
316 124 511 l0 122 43 13 c130 38 295 149 415 275 133 141 212 285 263 481 20
75 24 113 24 249 0 175 -17 263 -75 408 -104 254 -324 474 -583 581 l-82 34
-6 154 c-11 252 -76 438 -221 625 -98 128 -283 270 -426 327 l-70 28 -7 167
c-11 270 -32 412 -86 574 -16 49 -29 90 -29 92 0 2 170 5 378 7 l377 3 63 29
c85 39 159 120 200 218 51 124 63 201 69 444 5 201 4 228 -16 305 -31 123 -80
217 -146 277 -90 83 -92 83 -550 89 -543 8 -573 3 -717 -114 -113 -92 -333
-370 -340 -429 -2 -19 -122 328 -352 1021 -191 578 -367 1098 -391 1156 -225
552 -581 909 -990 994 -64 13 -223 15 -1160 15 -861 0 -1085 3 -1085 13 0 45
-34 215 -56 282 -96 294 -338 553 -611 657 l-83 31 0 123 c0 68 -7 158 -16
204 -76 404 -381 730 -783 838 -84 22 -117 25 -261 26 -142 1 -177 -2 -253
-22 l-88 -24 -76 77 c-159 159 -344 258 -566 300 -97 18 -296 18 -391 -1z
m329 -651 c110 -33 203 -117 256 -232 17 -36 36 -77 42 -91 21 -42 87 -101
144 -127 118 -54 225 -39 356 50 90 62 156 80 267 75 74 -3 98 -9 156 -38 167
-82 261 -261 233 -443 -6 -41 -28 -98 -62 -166 -50 -101 -52 -108 -51 -185 0
-103 32 -174 105 -240 75 -67 147 -87 287 -80 94 6 115 4 171 -16 127 -43 214
-119 268 -236 25 -53 28 -70 28 -164 0 -98 -2 -110 -32 -171 -51 -103 -144
-186 -256 -227 -30 -11 -83 -16 -187 -16 -170 -1 -213 -15 -292 -93 -67 -66
-93 -129 -92 -228 0 -76 2 -85 52 -185 60 -120 76 -194 62 -290 -19 -136 -113
-260 -243 -321 -67 -32 -79 -34 -172 -34 -88 0 -107 3 -160 28 -32 15 -73 38
-90 51 -98 75 -222 96 -326 57 -91 -35 -141 -86 -198 -207 -60 -125 -116 -185
-215 -234 -119 -59 -275 -52 -393 17 -63 36 -139 126 -178 208 -62 129 -166
197 -302 197 -71 0 -82 -3 -177 -50 -126 -64 -176 -76 -272 -69 -192 14 -357
168 -382 355 -14 99 1 174 58 287 60 121 71 183 45 270 -39 136 -128 211 -283
241 -104 19 -176 56 -245 125 -67 68 -103 138 -116 229 -32 230 118 430 356
476 140 26 221 84 271 193 21 44 26 71 27 132 0 71 -3 81 -53 182 -58 116 -72
186 -61 290 14 126 110 257 235 318 56 28 80 34 154 37 103 5 171 -11 258 -63
75 -44 138 -59 217 -53 124 10 204 71 276 208 52 101 122 173 204 212 99 46
204 53 310 21z m5356 -3783 c169 -652 306 -1186 305 -1187 -1 -2 -236 70 -522
158 l-519 160 -920 19 c-506 11 -1153 20 -1438 20 l-519 0 -1015 -180 c-559
-100 -1017 -179 -1018 -178 -1 2 28 118 64 258 l67 255 90 6 c113 8 186 23
294 61 156 54 264 123 397 252 l82 79 98 -24 c83 -20 121 -24 248 -23 128 1
165 5 248 27 354 94 640 357 753 693 39 117 54 213 54 349 l0 123 69 27 c110
42 236 123 330 212 l86 82 1229 -2 1230 -2 307 -1185z m-5521 -2005 c115 -17
188 -42 289 -96 418 -225 585 -747 376 -1174 -165 -339 -530 -539 -901 -495
-307 37 -563 218 -699 493 -69 140 -87 224 -87 392 0 168 18 252 87 392 149
303 449 493 790 502 28 0 93 -6 145 -14z m5864 -15 c241 -64 451 -228 565
-444 17 -33 30 -61 28 -62 -2 -2 -45 1 -95 7 -284 34 -652 -106 -846 -322
l-46 -51 -87 18 c-178 35 -382 19 -567 -45 -33 -12 -61 -21 -63 -21 -10 0 0
158 16 235 76 369 379 653 752 705 93 13 252 4 343 -20z m591 -1179 c102 -47
167 -116 225 -236 76 -161 171 -229 315 -228 74 1 133 22 209 75 173 121 375
113 529 -22 94 -83 138 -184 139 -315 0 -89 -16 -148 -62 -225 -43 -73 -64
-153 -57 -218 8 -77 58 -173 112 -217 74 -62 125 -75 277 -74 111 1 142 -2
185 -19 82 -31 137 -67 186 -122 69 -77 100 -148 105 -246 10 -180 -80 -329
-247 -408 -64 -30 -71 -31 -212 -33 -179 -3 -237 -20 -309 -92 -69 -69 -94
-129 -94 -226 -1 -78 1 -85 51 -187 60 -120 76 -196 62 -295 -32 -226 -256
-392 -477 -353 -64 11 -127 40 -231 105 -126 80 -275 66 -387 -37 -34 -31 -60
-70 -95 -143 -74 -156 -175 -239 -322 -266 -184 -34 -357 58 -450 239 -81 155
-169 217 -313 217 -77 0 -84 -2 -185 -52 -73 -37 -125 -56 -172 -63 -274 -42
-515 197 -476 474 9 67 21 101 62 170 82 141 69 289 -35 402 -54 58 -98 80
-208 104 -110 23 -179 58 -241 120 -158 158 -163 412 -12 580 56 62 142 106
255 131 51 11 112 31 135 44 65 39 120 109 143 183 33 106 26 150 -47 298 -51
103 -65 178 -52 272 32 226 254 390 478 354 44 -8 101 -29 171 -64 101 -51
108 -53 185 -53 67 0 89 5 136 28 72 35 128 95 174 187 85 170 227 255 407
246 60 -3 93 -11 143 -35z"/>
<path d="M7962 8873 c4 -492 5 -510 27 -588 75 -266 246 -452 467 -510 83 -21
565 -22 647 0 104 27 176 71 267 164 71 71 94 103 132 181 90 183 91 194 96
763 l4 497 -822 0 -821 0 3 -507z"/>
</g>
</svg>
